<?xml version="1.0" encoding="UTF-8"?><svg xmlns="http://www.w3.org/2000/svg" xmlns:xlink="http://www.w3.org/1999/xlink" fill-opacity="1" color-rendering="auto" color-interpolation="auto" text-rendering="auto" stroke="black" stroke-linecap="square" width="616" stroke-miterlimit="10" shape-rendering="auto" stroke-opacity="1" fill="black" stroke-dasharray="none" font-weight="normal" stroke-width="1" height="385" font-family="'Dialog'" font-style="normal" stroke-linejoin="miter" font-size="12px" stroke-dashoffset="0" image-rendering="auto">
  <!--Generated by ySVG 2.5-->
  <defs id="genericDefs"/>
  <g>
    <defs id="defs1">
      <clipPath clipPathUnits="userSpaceOnUse" id="clipPath1">
        <path d="M0 0 L616 0 L616 385 L0 385 L0 0 Z"/>
      </clipPath>
      <clipPath clipPathUnits="userSpaceOnUse" id="clipPath2">
        <path d="M1451 694 L2067 694 L2067 1079 L1451 1079 L1451 694 Z"/>
      </clipPath>
    </defs>
    <g fill="white" text-rendering="geometricPrecision" shape-rendering="geometricPrecision" transform="translate(-1451,-694)" stroke="white">
      <rect x="1451" width="616" height="385" y="694" clip-path="url(#clipPath2)" stroke="none"/>
    </g>
    <g text-rendering="geometricPrecision" stroke-miterlimit="1.45" shape-rendering="geometricPrecision" font-family="sans-serif" transform="matrix(1,0,0,1,-1451,-694)" stroke-linecap="butt">
      <text x="1668.4742" xml:space="preserve" y="877.221" clip-path="url(#clipPath2)" stroke="none">Device type</text>
      <rect x="1648.9997" y="857.9028" clip-path="url(#clipPath2)" fill="none" width="110.6093" height="30.3277" stroke-width="3"/>
      <text x="1813.511" xml:space="preserve" y="879.3181" clip-path="url(#clipPath2)" stroke="none">Device group</text>
      <rect fill="none" x="1798.1907" width="110.6093" height="30" y="860.1638" clip-path="url(#clipPath2)"/>
      <text x="1759.0895" xml:space="preserve" y="983.5127" clip-path="url(#clipPath2)" stroke="none">Device</text>
      <rect x="1742.4906" y="964.3584" clip-path="url(#clipPath2)" fill="none" width="74.2368" height="30" stroke-width="3"/>
      <text x="1795.7349" xml:space="preserve" y="789.581" clip-path="url(#clipPath2)" stroke="none">Credential</text>
      <rect fill="none" x="1771.4438" width="110.6093" height="30.3277" y="770.2628" clip-path="url(#clipPath2)"/>
      <text x="1964.5122" xml:space="preserve" y="879.3181" clip-path="url(#clipPath2)" stroke="none">Repository</text>
      <rect fill="none" x="1941.3814" width="110.6093" height="30.3277" y="860" clip-path="url(#clipPath2)"/>
      <text x="1690.3619" xml:space="preserve" y="789.581" clip-path="url(#clipPath2)" stroke="none">Task</text>
      <rect fill="none" x="1648.9997" width="110.6093" height="30.3277" y="770.2628" clip-path="url(#clipPath2)"/>
      <text x="1519.4003" xml:space="preserve" y="789.581" clip-path="url(#clipPath2)" stroke="none">Connection Setting</text>
      <rect fill="none" x="1516.3155" width="120.8493" height="30.3277" y="770.2628" clip-path="url(#clipPath2)"/>
    </g>
    <g fill="silver" text-rendering="geometricPrecision" shape-rendering="geometricPrecision" transform="matrix(1,0,0,1,-1451,-694)" stroke="silver">
      <rect x="1643.8797" width="120.8493" height="30.3277" y="709.9352" clip-path="url(#clipPath2)" stroke="none"/>
    </g>
    <g text-rendering="geometricPrecision" stroke-miterlimit="1.45" shape-rendering="geometricPrecision" font-family="sans-serif" transform="matrix(1,0,0,1,-1451,-694)" stroke-linecap="butt">
      <text x="1663.8776" xml:space="preserve" y="729.2533" clip-path="url(#clipPath2)" stroke="none">Handler class</text>
      <rect fill="none" x="1643.8797" width="120.8493" height="30.3277" y="709.9352" clip-path="url(#clipPath2)"/>
      <text x="1759.4498" xml:space="preserve" y="1052.9031" clip-path="url(#clipPath2)" stroke="none">Report</text>
      <rect fill="none" x="1742.4906" width="74.2368" height="30" y="1033.7488" clip-path="url(#clipPath2)"/>
    </g>
    <g fill="silver" text-rendering="geometricPrecision" shape-rendering="geometricPrecision" transform="matrix(1,0,0,1,-1451,-694)" stroke="silver">
      <rect x="1466.5286" width="120.8493" height="30.3277" y="825.4705" clip-path="url(#clipPath2)" stroke="none"/>
    </g>
    <g text-rendering="geometricPrecision" stroke-miterlimit="1.45" shape-rendering="geometricPrecision" font-family="sans-serif" transform="matrix(1,0,0,1,-1451,-694)" stroke-linecap="butt">
      <text x="1481.713" xml:space="preserve" y="844.7886" clip-path="url(#clipPath2)" stroke="none">RemoteControl</text>
      <rect fill="none" x="1466.5286" width="120.8493" height="30.3277" y="825.4705" clip-path="url(#clipPath2)"/>
    </g>
    <g stroke-linecap="butt" transform="matrix(1,0,0,1,-1451,-694)" fill="rgb(153,153,153)" text-rendering="geometricPrecision" shape-rendering="geometricPrecision" stroke-dasharray="6,2" stroke="rgb(153,153,153)" stroke-miterlimit="1.45">
      <path fill="none" d="M1822.3495 890.1487 L1809.5045 896.3286 L1800.5822 900.1019 L1791.8114 902.7634 L1783.1921 904.313 L1774.7244 904.751 L1766.4081 904.0771 L1758.2434 902.2915 L1750.2302 899.3941 L1742.3687 895.3849 L1737.0403 892.2607" clip-path="url(#clipPath2)"/>
      <path d="M1730.139 888.2143 L1737.9619 898.5971 L1737.903 892.7665 L1743.0199 889.9706 Z" clip-path="url(#clipPath2)" stroke="none"/>
    </g>
    <g font-size="8px" stroke-linecap="butt" transform="matrix(1,0,0,1,-1451,-694)" text-rendering="geometricPrecision" font-family="sans-serif" shape-rendering="geometricPrecision" stroke-miterlimit="1.45">
      <text x="1801.1378" xml:space="preserve" y="909.9185" clip-path="url(#clipPath2)" stroke="none">Default</text>
      <path fill="none" d="M1774.9586 964.3871 L1772.6674 957.0106 L1770.9376 952.61 L1768.5884 948.5504 L1765.6194 944.8317 L1762.0309 941.454 L1757.8226 938.4174 L1752.9949 935.7217 L1747.5475 933.3669 L1741.4805 931.3533 L1735.812 929.7149 L1729.7915 927.6404 L1724.4838 925.1035 L1719.8888 922.1039 L1716.0065 918.6418 L1712.8369 914.7172 L1710.38 910.3301 L1708.6359 905.4804 L1707.6045 900.1682 L1707.118 896.1733" clip-path="url(#clipPath2)"/>
      <path d="M1706.151 888.2319 L1702.6382 900.7484 L1707.2389 897.166 L1712.5649 899.5396 Z" stroke="none" clip-path="url(#clipPath2)"/>
      <path fill="none" d="M1782.0667 964.3719 L1783.4808 955.749 L1784.6934 951.0876 L1786.7468 946.7616 L1789.6414 942.7711 L1793.377 939.116 L1797.9536 935.7964 L1803.3713 932.8123 L1809.63 930.1636 L1816.7297 927.8503 L1823.4143 925.9432 L1830.4646 923.6351 L1836.5747 921.0018 L1841.745 918.0433 L1845.9751 914.7596 L1849.2653 911.1506 L1851.6152 907.2164 L1853.0254 902.957 L1853.4954 898.3724 L1853.4954 898.1678" clip-path="url(#clipPath2)"/>
      <path d="M1853.4954 890.1678 L1848.4954 902.1678 L1853.4954 899.1678 L1858.4954 902.1678 Z" stroke="none" clip-path="url(#clipPath2)"/>
    </g>
    <g stroke-linecap="butt" transform="matrix(1,0,0,1,-1451,-694)" fill="rgb(153,153,153)" text-rendering="geometricPrecision" shape-rendering="geometricPrecision" stroke-dasharray="6,2" stroke="rgb(153,153,153)" stroke-miterlimit="1.45">
      <path fill="none" d="M1779.609 964.3951 L1779.609 896.3098 L1779.9404 880.0824 L1780.9348 865.3746 L1782.592 852.1865 L1784.9122 840.5181 L1787.8953 830.3692 L1791.5411 821.74 L1795.85 814.6304 L1800.8218 809.0405 L1804.1993 805.9643" clip-path="url(#clipPath2)"/>
      <path d="M1810.1139 800.5774 L1797.8754 804.9611 L1803.4601 806.6376 L1804.6089 812.3543 Z" clip-path="url(#clipPath2)" stroke="none"/>
    </g>
    <g font-size="8px" stroke-linecap="butt" transform="matrix(1,0,0,1,-1451,-694)" text-rendering="geometricPrecision" font-family="sans-serif" shape-rendering="geometricPrecision" stroke-miterlimit="1.45">
      <text x="1797.678" xml:space="preserve" y="839.4247" clip-path="url(#clipPath2)" stroke="none">Override</text>
      <path fill="none" d="M1716.1311 857.8791 L1728.191 842.3919 L1733.3271 836.2856 L1738.9636 830.5154 L1745.1005 825.0815 L1751.7378 819.9836 L1758.8755 815.222 L1766.5135 810.7964 L1774.652 806.7071 L1781.787 803.6073 L1781.8798 803.5699" clip-path="url(#clipPath2)"/>
      <path d="M1789.2825 800.5368 L1776.2827 800.4597 L1780.9543 803.949 L1780.0741 809.7131 Z" stroke="none" clip-path="url(#clipPath2)"/>
      <path fill="none" d="M1908.8 875.1638 L1933.3815 875.1638" clip-path="url(#clipPath2)"/>
      <path d="M1941.3815 875.1638 L1929.3815 870.1638 L1932.3815 875.1638 L1929.3815 880.1638 Z" stroke="none" clip-path="url(#clipPath2)"/>
      <path fill="none" d="M1704.3043 857.9028 L1704.3043 808.5905" clip-path="url(#clipPath2)"/>
      <path d="M1704.3043 800.5905 L1699.3043 812.5905 L1704.3043 809.5905 L1709.3043 812.5905 Z" stroke="none" clip-path="url(#clipPath2)"/>
      <text x="1710.123" xml:space="preserve" font-size="12px" y="837.805" clip-path="url(#clipPath2)" stroke="none">*</text>
      <path fill="none" d="M1689.5876 857.921 L1674.1041 841.9861 L1661.2504 829.9852 L1647.3984 819.4119 L1632.5485 810.2662 L1619.4288 803.877 L1619.3369 803.8376" clip-path="url(#clipPath2)"/>
      <path d="M1612.0432 800.5508 L1620.9294 810.0395 L1620.2485 804.2484 L1625.0378 800.9224 Z" stroke="none" clip-path="url(#clipPath2)"/>
      <path fill="none" d="M1704.3043 770.2629 L1704.3043 748.2629" clip-path="url(#clipPath2)"/>
      <path d="M1704.3043 740.2629 L1699.3043 752.2629 L1704.3043 749.2629 L1709.3043 752.2629 Z" stroke="none" clip-path="url(#clipPath2)"/>
      <path fill="none" d="M1779.609 1033.7488 L1779.609 1002.3584" clip-path="url(#clipPath2)"/>
      <path d="M1779.609 994.3584 L1774.609 1006.3584 L1779.609 1003.3584 L1784.609 1006.3584 Z" stroke="none" clip-path="url(#clipPath2)"/>
      <path fill="none" d="M1764.0619 1033.7286 L1681.1837 953.6603 L1671.6143 944.0803 L1663.0383 934.7901 L1655.4559 925.7899 L1648.8671 917.0795 L1643.2717 908.6589 L1638.67 900.5283 L1635.0618 892.6876 L1632.447 885.1367 L1630.8259 877.8757 L1630.1982 870.9045 L1630.5641 864.2233 L1631.9236 857.8319 L1634.2765 851.7305 L1637.623 845.9188 L1641.963 840.3972 L1647.2966 835.1653 L1680.8789 805.8652" clip-path="url(#clipPath2)"/>
      <path d="M1686.907 800.6057 L1674.5776 804.7274 L1680.1254 806.5226 L1681.152 812.2625 Z" stroke="none" clip-path="url(#clipPath2)"/>
      <path fill="none" d="M1648.9996 862.9531 L1595.2474 853.1234" clip-path="url(#clipPath2)"/>
      <path d="M1587.3779 851.6843 L1598.2827 858.7614 L1596.2311 853.3032 L1600.0817 848.9244 Z" stroke="none" clip-path="url(#clipPath2)"/>
    </g>
  </g>
</svg>
